<?xml version="1.0" encoding="UTF-8"?>
<!DOCTYPE svg PUBLIC "-//W3C//DTD SVG 1.1//EN" "http://www.w3.org/Graphics/SVG/1.1/DTD/svg11.dtd">
<svg xmlns="http://www.w3.org/2000/svg" version="1.1" width="590px" height="389px" style="shape-rendering:geometricPrecision; text-rendering:geometricPrecision; image-rendering:optimizeQuality; fill-rule:evenodd; clip-rule:evenodd" xmlns:xlink="http://www.w3.org/1999/xlink">
<g><path style="opacity:1" fill="#004b91" d="M -0.5,-0.5 C 196.167,-0.5 392.833,-0.5 589.5,-0.5C 589.5,129.167 589.5,258.833 589.5,388.5C 392.833,388.5 196.167,388.5 -0.5,388.5C -0.5,258.833 -0.5,129.167 -0.5,-0.5 Z"/></g>
<g><path style="opacity:1" fill="#004c8e" d="M 15.5,7.5 C 16.8333,7.5 18.1667,7.5 19.5,7.5C 20.8333,130.167 20.8333,252.833 19.5,375.5C 18.1667,375.5 16.8333,375.5 15.5,375.5C 15.5,252.833 15.5,130.167 15.5,7.5 Z"/></g>
<g><path style="opacity:1" fill="#004c8e" d="M 571.5,7.5 C 572.833,7.5 574.167,7.5 575.5,7.5C 575.5,130.167 575.5,252.833 575.5,375.5C 574.167,375.5 572.833,375.5 571.5,375.5C 570.167,252.833 570.167,130.167 571.5,7.5 Z"/></g>
<g><path style="opacity:1" fill="#144a7f" d="M 239.5,47.5 C 238.37,42.2985 237.204,36.9652 236,31.5C 229.57,23.525 223.236,23.525 217,31.5C 217.192,36.7994 217.359,42.1327 217.5,47.5C 215.696,40.5683 214.863,33.2349 215,25.5C 213.759,24.1233 213.592,22.79 214.5,21.5C 215.799,22.09 216.632,23.09 217,24.5C 217.333,24.1667 217.667,23.8333 218,23.5C 222.08,24.3002 226.247,24.8002 230.5,25C 233.249,27.4226 236.249,29.4226 239.5,31C 238.484,31.5194 237.818,32.3527 237.5,33.5C 239.217,37.9907 239.883,42.6574 239.5,47.5 Z"/></g>
<g><path style="opacity:1" fill="#fafdfc" d="M 239.5,47.5 C 241.716,63.702 244.383,79.702 247.5,95.5C 248.211,103.89 249.377,112.223 251,120.5C 251.874,122.776 253.541,124.11 256,124.5C 258.074,123.928 259.24,122.595 259.5,120.5C 265.166,93.6713 270.666,66.6713 276,39.5C 276.996,37.3395 278.496,35.6728 280.5,34.5C 285.447,33.6276 289.613,34.9609 293,38.5C 292.167,63.8365 291,89.1699 289.5,114.5C 288.808,123.401 288.141,132.401 287.5,141.5C 285.847,141.66 284.514,142.326 283.5,143.5C 283.167,143.5 282.833,143.5 282.5,143.5C 268.599,148.785 254.266,152.285 239.5,154C 236.734,155.371 234.401,157.204 232.5,159.5C 226.111,166.586 224.945,174.586 229,183.5C 233.236,190.244 239.07,194.91 246.5,197.5C 249.906,199.109 253.573,200.276 257.5,201C 268.86,201.743 280.193,201.577 291.5,200.5C 288.923,205.697 286.423,211.03 284,216.5C 272.867,232.599 261.367,248.432 249.5,264C 239.146,264.296 228.813,264.796 218.5,265.5C 215.807,264.153 213.14,262.82 210.5,261.5C 206.123,257.289 202.29,252.622 199,247.5C 194.439,236.975 190.605,226.308 187.5,215.5C 187.5,215.167 187.5,214.833 187.5,214.5C 185.652,201.721 183.152,189.054 180,176.5C 178.951,173.813 177.451,171.48 175.5,169.5C 174.955,167.407 174.122,165.407 173,163.5C 158.652,144.141 145.819,123.807 134.5,102.5C 136.169,95.8342 140.169,93.6675 146.5,96C 159.709,110.873 172.542,126.04 185,141.5C 187.912,144.544 191.412,145.711 195.5,145C 197.444,142.847 197.944,140.347 197,137.5C 189.999,120.175 182.499,103.175 174.5,86.5C 171.77,79.8166 168.937,73.1499 166,66.5C 161.404,56.3036 164.57,50.9703 175.5,50.5C 178.889,52.7252 181.389,55.7252 183,59.5C 187.941,69.7181 193.108,79.7181 198.5,89.5C 201.913,96.6608 205.58,103.661 209.5,110.5C 209.893,112.284 210.559,113.95 211.5,115.5C 213.451,119.229 215.784,122.729 218.5,126C 220.433,126.783 221.933,126.283 223,124.5C 223.362,114.649 222.862,104.982 221.5,95.5C 221.248,82.6266 220.248,69.9599 218.5,57.5C 218.813,53.9581 218.479,50.6248 217.5,47.5C 217.359,42.1327 217.192,36.7994 217,31.5C 223.236,23.525 229.57,23.525 236,31.5C 237.204,36.9652 238.37,42.2985 239.5,47.5 Z"/></g>
<g><path style="opacity:1" fill="#1e4b79" d="M 175.5,50.5 C 164.57,50.9703 161.404,56.3036 166,66.5C 168.937,73.1499 171.77,79.8166 174.5,86.5C 173.504,86.5858 172.671,86.2524 172,85.5C 170.285,79.1054 167.618,73.1054 164,67.5C 161.886,62.0403 162.053,56.7069 164.5,51.5C 168.181,50.1387 171.848,48.8053 175.5,47.5C 175.5,48.5 175.5,49.5 175.5,50.5 Z"/></g>
<g><path style="opacity:1" fill="#1a4b7c" d="M 239.5,47.5 C 241.067,48.6808 241.901,50.3474 242,52.5C 244.442,66.7608 246.275,81.0941 247.5,95.5C 244.383,79.702 241.716,63.702 239.5,47.5 Z"/></g>
<g><path style="opacity:1" fill="#224e7c" d="M 218.5,57.5 C 220.248,69.9599 221.248,82.6266 221.5,95.5C 220.18,92.572 219.514,89.2386 219.5,85.5C 218.871,76.1756 218.538,66.8423 218.5,57.5 Z"/></g>
<g><path style="opacity:1" fill="#124a7b" d="M 209.5,110.5 C 205.58,103.661 201.913,96.6608 198.5,89.5C 201.275,88.9395 203.108,87.2729 204,84.5C 204.333,84.8333 204.667,85.1667 205,85.5C 204.515,88.8605 203.682,92.1938 202.5,95.5C 203.5,95.5 204.5,95.5 205.5,95.5C 206.484,101.989 207.318,101.989 208,95.5C 208.411,100.519 208.911,105.519 209.5,110.5 Z"/></g>
<g><path style="opacity:1" fill="#214f81" d="M 280.5,34.5 C 289.293,31.7325 294.626,34.8992 296.5,44C 294.97,50.4025 294.137,56.9025 294,63.5C 292.692,90.1816 291.525,116.848 290.5,143.5C 296.131,144.074 296.465,144.74 291.5,145.5C 288.802,144.809 286.135,144.142 283.5,143.5C 284.514,142.326 285.847,141.66 287.5,141.5C 289.471,132.895 290.138,123.895 289.5,114.5C 291,89.1699 292.167,63.8365 293,38.5C 289.613,34.9609 285.447,33.6276 280.5,34.5 Z"/></g>
<g><path style="opacity:1" fill="#1f4972" d="M 247.5,95.5 C 248.748,96.3339 249.415,97.6672 249.5,99.5C 250.251,105.844 251.085,112.178 252,118.5C 253.703,123.483 256.036,123.816 259,119.5C 259.399,119.728 259.565,120.062 259.5,120.5C 259.24,122.595 258.074,123.928 256,124.5C 253.541,124.11 251.874,122.776 251,120.5C 249.377,112.223 248.211,103.89 247.5,95.5 Z"/></g>
<g><path style="opacity:1" fill="#295686" d="M 221.5,95.5 C 222.862,104.982 223.362,114.649 223,124.5C 221.933,126.283 220.433,126.783 218.5,126C 215.784,122.729 213.451,119.229 211.5,115.5C 213.017,115.511 214.184,116.177 215,117.5C 215.665,120.835 217.498,122.668 220.5,123C 221.591,120.936 221.758,118.769 221,116.5C 219.647,115.315 218.48,113.981 217.5,112.5C 218.689,111.571 220.022,111.238 221.5,111.5C 221.5,106.167 221.5,100.833 221.5,95.5 Z"/></g>
<g><path style="opacity:1" fill="#80a1c1" d="M 289.5,114.5 C 290.138,123.895 289.471,132.895 287.5,141.5C 288.141,132.401 288.808,123.401 289.5,114.5 Z"/></g>
<g><path style="opacity:1" fill="#fbfdfd" d="M 361.5,127.5 C 369.813,126.752 377.813,127.918 385.5,131C 396.538,143.347 409.538,153.014 424.5,160C 426.314,162.479 427.981,164.979 429.5,167.5C 431.438,175.377 431.938,183.377 431,191.5C 427.122,207.301 421.955,222.634 415.5,237.5C 415.5,237.833 415.5,238.167 415.5,238.5C 410.602,246.025 407.769,254.358 407,263.5C 406.5,282.164 406.333,300.83 406.5,319.5C 406.991,327.675 406.157,335.675 404,343.5C 400.702,346.934 397.202,347.267 393.5,344.5C 392.683,341.521 391.849,338.521 391,335.5C 389.334,320.85 387.834,306.184 386.5,291.5C 387.839,288.312 388.339,284.978 388,281.5C 385.339,278.072 382.506,274.905 379.5,272C 377.866,271.506 376.199,271.34 374.5,271.5C 374.5,272.5 374.5,273.5 374.5,274.5C 372.713,278.638 371.379,282.971 370.5,287.5C 368.943,293.394 367.943,299.394 367.5,305.5C 364.233,323.751 360.733,342.084 357,360.5C 354.943,365.945 351.109,367.778 345.5,366C 343.333,365.167 341.833,363.667 341,361.5C 340.911,347.391 342.078,333.391 344.5,319.5C 344.833,314.167 345.167,308.833 345.5,303.5C 347.55,294.736 348.383,285.736 348,276.5C 346.112,274.078 344.112,274.078 342,276.5C 334.223,289.726 326.723,303.059 319.5,316.5C 315.329,322.838 311.663,329.504 308.5,336.5C 304.84,341.813 301.673,347.48 299,353.5C 294.8,357.714 289.966,358.548 284.5,356C 281.757,352.239 280.924,348.072 282,343.5C 283.136,340.904 283.969,338.237 284.5,335.5C 291.35,321.795 297.683,307.795 303.5,293.5C 307.406,286.02 311.072,278.353 314.5,270.5C 317.809,266.187 318.142,261.687 315.5,257C 310.705,257.595 307.038,260.095 304.5,264.5C 303.833,264.5 303.5,264.833 303.5,265.5C 286.612,282.773 269.612,299.94 252.5,317C 240.722,319.888 236.222,315.388 239,303.5C 251.791,287.889 263.957,271.889 275.5,255.5C 277.975,253.23 279.975,250.563 281.5,247.5C 285.321,243.194 288.655,238.527 291.5,233.5C 296.761,227.323 300.761,220.323 303.5,212.5C 306.067,208.151 308.067,203.485 309.5,198.5C 312.77,186.412 308.104,181.079 295.5,182.5C 283.551,184.021 271.551,184.688 259.5,184.5C 253.441,183.554 248.274,180.887 244,176.5C 242.555,170.431 245.055,167.598 251.5,168C 258.737,168.361 265.404,166.861 271.5,163.5C 282.161,161.394 292.161,157.727 301.5,152.5C 302.492,152.672 303.158,152.338 303.5,151.5C 310.899,147.801 318.232,144.134 325.5,140.5C 328.918,139.361 332.251,138.028 335.5,136.5C 344.056,132.87 352.723,129.87 361.5,127.5 Z"/></g>
<g><path style="opacity:1" fill="#204974" d="M 361.5,127.5 C 352.723,129.87 344.056,132.87 335.5,136.5C 337.141,134.742 339.141,133.242 341.5,132C 348.002,129.54 354.668,128.04 361.5,127.5 Z"/></g>
<g><path style="opacity:1" fill="#154a7e" d="M 325.5,140.5 C 318.232,144.134 310.899,147.801 303.5,151.5C 302.358,149.567 300.692,148.067 298.5,147C 301.014,146.431 303.348,146.931 305.5,148.5C 308.079,146.975 310.746,145.641 313.5,144.5C 314.098,143.205 314.598,141.872 315,140.5C 318.435,141.466 321.935,141.466 325.5,140.5 Z"/></g>
<g><path style="opacity:1" fill="#104b87" d="M 282.5,143.5 C 283.936,144.429 285.269,145.595 286.5,147C 285.167,147.333 283.833,147.667 282.5,148C 284.569,148.324 284.902,149.158 283.5,150.5C 284.955,152.22 285.788,154.22 286,156.5C 286.333,155.833 286.667,155.167 287,154.5C 288.488,156.82 290.321,156.987 292.5,155C 291.383,153.108 289.716,152.275 287.5,152.5C 287.5,151.5 287.5,150.5 287.5,149.5C 292.067,150.856 296.734,151.856 301.5,152.5C 292.161,157.727 282.161,161.394 271.5,163.5C 270.263,161.903 268.596,160.737 266.5,160C 270.272,158.904 271.939,156.404 271.5,152.5C 275.507,153.004 279.507,153.17 283.5,153C 281.608,152.027 279.608,151.36 277.5,151C 279.167,150.667 280.833,150.333 282.5,150C 278.878,148.894 275.211,148.561 271.5,149C 268.141,150.383 264.807,151.716 261.5,153C 254.782,153.225 248.115,153.892 241.5,155C 238.779,157.177 235.779,158.677 232.5,159.5C 234.401,157.204 236.734,155.371 239.5,154C 254.266,152.285 268.599,148.785 282.5,143.5 Z"/></g>
<g><path style="opacity:1" fill="#144b84" d="M 437.5,164.5 C 441.482,173.177 442.482,182.177 440.5,191.5C 440.5,186.167 440.5,180.833 440.5,175.5C 439.5,175.5 438.5,175.5 437.5,175.5C 437.5,180.833 437.5,186.167 437.5,191.5C 434.464,192.812 432.298,195.146 431,198.5C 427.465,210.939 423.631,223.272 419.5,235.5C 418.478,236.354 417.645,237.354 417,238.5C 416.617,237.944 416.117,237.611 415.5,237.5C 421.955,222.634 427.122,207.301 431,191.5C 431.938,183.377 431.438,175.377 429.5,167.5C 430.117,167.611 430.617,167.944 431,168.5C 431.333,166.833 431.667,165.167 432,163.5C 433.149,166.393 433.649,169.393 433.5,172.5C 434.675,172.719 435.675,172.386 436.5,171.5C 437.374,169.253 437.708,166.92 437.5,164.5 Z"/></g>
<g><path style="opacity:1" fill="#f0fafa" d="M 440.5,191.5 C 442.482,182.177 441.482,173.177 437.5,164.5C 436.365,162.255 435.865,159.922 436,157.5C 437.133,155.789 438.633,155.289 440.5,156C 443.827,160.639 445.994,165.805 447,171.5C 447.853,180.886 447.519,190.219 446,199.5C 445.703,202.438 444.203,204.438 441.5,205.5C 440.522,205.023 439.689,204.357 439,203.5C 439.479,199.556 439.979,195.556 440.5,191.5 Z"/></g>
<g><path style="opacity:1" fill="#1c4d85" d="M 175.5,169.5 C 177.451,171.48 178.951,173.813 180,176.5C 183.152,189.054 185.652,201.721 187.5,214.5C 186.058,209.633 184.058,204.799 181.5,200C 182.116,198.6 182.449,197.1 182.5,195.5C 181.275,191.239 180.442,186.906 180,182.5C 179.167,181.5 178.333,180.5 177.5,179.5C 176.673,183.459 176.173,187.459 176,191.5C 175.772,184.017 175.606,176.684 175.5,169.5 Z"/></g>
<g><path style="opacity:1" fill="#ecf6f7" d="M 455.5,159.5 C 457.144,159.286 458.644,159.62 460,160.5C 465.829,175.449 465.829,190.449 460,205.5C 457.235,209.587 455.069,209.42 453.5,205C 458.355,191.093 458.689,177.093 454.5,163C 454.648,161.744 454.982,160.577 455.5,159.5 Z"/></g>
<g><path style="opacity:1" fill="#044b91" d="M 271.5,163.5 C 266.236,163.78 261.236,162.78 256.5,160.5C 255.614,161.325 255.281,162.325 255.5,163.5C 257.199,163.34 258.866,163.506 260.5,164C 261.833,164.667 261.833,165.333 260.5,166C 258.134,166.562 255.801,166.396 253.5,165.5C 249.338,165.937 245.338,166.77 241.5,168C 241.545,170.636 241.712,173.47 242,176.5C 245.729,180.683 250.229,183.683 255.5,185.5C 272.248,186.028 288.914,186.861 305.5,188C 306.635,192.748 306.802,197.581 306,202.5C 304.851,205.779 304.018,209.113 303.5,212.5C 300.761,220.323 296.761,227.323 291.5,233.5C 289.983,233.489 288.816,232.823 288,231.5C 287.751,232.624 287.251,233.624 286.5,234.5C 285.232,232.696 284.565,230.696 284.5,228.5C 283.167,228.5 281.833,228.5 280.5,228.5C 280.005,224.497 281.505,221.497 285,219.5C 286.193,215.379 288.193,211.712 291,208.5C 291.373,206.302 291.873,204.135 292.5,202C 292.43,201.235 292.097,200.735 291.5,200.5C 280.193,201.577 268.86,201.743 257.5,201C 253.573,200.276 249.906,199.109 246.5,197.5C 245.473,194.142 243.14,192.475 239.5,192.5C 239.5,191.167 239.5,189.833 239.5,188.5C 240.873,188.657 242.207,188.49 243.5,188C 244.833,187 244.833,186 243.5,185C 240.189,185.215 236.856,185.215 233.5,185C 231.274,183.773 229.774,181.939 229,179.5C 228.333,175.5 228.333,171.5 229,167.5C 230.467,164.921 231.634,162.254 232.5,159.5C 235.779,158.677 238.779,157.177 241.5,155C 248.115,153.892 254.782,153.225 261.5,153C 264.807,151.716 268.141,150.383 271.5,149C 275.211,148.561 278.878,148.894 282.5,150C 280.833,150.333 279.167,150.667 277.5,151C 279.608,151.36 281.608,152.027 283.5,153C 279.507,153.17 275.507,153.004 271.5,152.5C 271.939,156.404 270.272,158.904 266.5,160C 268.596,160.737 270.263,161.903 271.5,163.5 Z"/></g>
<g><path style="opacity:1" fill="#d9eff7" d="M 309.5,198.5 C 311.028,191.376 308.361,186.876 301.5,185C 287.332,185.244 273.332,185.078 259.5,184.5C 271.551,184.688 283.551,184.021 295.5,182.5C 308.104,181.079 312.77,186.412 309.5,198.5 Z"/></g>
<g><path style="opacity:1" fill="#194979" d="M 271.5,163.5 C 265.404,166.861 258.737,168.361 251.5,168C 245.055,167.598 242.555,170.431 244,176.5C 248.274,180.887 253.441,183.554 259.5,184.5C 273.332,185.078 287.332,185.244 301.5,185C 308.361,186.876 311.028,191.376 309.5,198.5C 308.067,203.485 306.067,208.151 303.5,212.5C 304.018,209.113 304.851,205.779 306,202.5C 306.802,197.581 306.635,192.748 305.5,188C 288.914,186.861 272.248,186.028 255.5,185.5C 250.229,183.683 245.729,180.683 242,176.5C 241.712,173.47 241.545,170.636 241.5,168C 245.338,166.77 249.338,165.937 253.5,165.5C 255.801,166.396 258.134,166.562 260.5,166C 261.833,165.333 261.833,164.667 260.5,164C 258.866,163.506 257.199,163.34 255.5,163.5C 255.281,162.325 255.614,161.325 256.5,160.5C 261.236,162.78 266.236,163.78 271.5,163.5 Z"/></g>
<g><path style="opacity:1" fill="#164a81" d="M 232.5,159.5 C 231.634,162.254 230.467,164.921 229,167.5C 228.333,171.5 228.333,175.5 229,179.5C 229.774,181.939 231.274,183.773 233.5,185C 236.856,185.215 240.189,185.215 243.5,185C 244.833,186 244.833,187 243.5,188C 242.207,188.49 240.873,188.657 239.5,188.5C 239.5,189.833 239.5,191.167 239.5,192.5C 243.14,192.475 245.473,194.142 246.5,197.5C 239.07,194.91 233.236,190.244 229,183.5C 224.945,174.586 226.111,166.586 232.5,159.5 Z"/></g>
<g><path style="opacity:1" fill="#134b82" d="M 291.5,200.5 C 292.097,200.735 292.43,201.235 292.5,202C 291.873,204.135 291.373,206.302 291,208.5C 288.193,211.712 286.193,215.379 285,219.5C 281.505,221.497 280.005,224.497 280.5,228.5C 281.833,228.5 283.167,228.5 284.5,228.5C 284.565,230.696 285.232,232.696 286.5,234.5C 287.251,233.624 287.751,232.624 288,231.5C 288.816,232.823 289.983,233.489 291.5,233.5C 288.655,238.527 285.321,243.194 281.5,247.5C 281.827,244.489 283.161,241.989 285.5,240C 285.047,237.307 283.547,235.473 281,234.5C 280.13,228.757 278.296,228.257 275.5,233C 276.076,234.714 277.243,235.881 279,236.5C 279.813,238.436 280.313,240.436 280.5,242.5C 279.5,242.5 278.5,242.5 277.5,242.5C 277.5,241.5 277.5,240.5 277.5,239.5C 275.362,239.297 273.695,238.297 272.5,236.5C 271.614,237.325 271.281,238.325 271.5,239.5C 270.5,239.5 269.5,239.5 268.5,239.5C 268.762,240.978 268.429,242.311 267.5,243.5C 264.851,247.855 261.851,251.855 258.5,255.5C 255.802,258.423 253.135,261.589 250.5,265C 249.5,265.333 248.5,265.667 247.5,266C 238.965,266.209 230.465,266.709 222,267.5C 220.541,267.192 219.374,266.525 218.5,265.5C 228.813,264.796 239.146,264.296 249.5,264C 261.367,248.432 272.867,232.599 284,216.5C 286.423,211.03 288.923,205.697 291.5,200.5 Z"/></g>
<g><path style="opacity:1" fill="#1a4a7e" d="M 187.5,215.5 C 190.605,226.308 194.439,236.975 199,247.5C 202.29,252.622 206.123,257.289 210.5,261.5C 207.637,260.647 205.304,258.98 203.5,256.5C 200.914,255.52 198.247,255.187 195.5,255.5C 195.682,253.325 196.349,251.325 197.5,249.5C 195.183,243.24 193.016,236.906 191,230.5C 189.846,229.257 188.512,228.257 187,227.5C 186.567,225.336 187.067,223.336 188.5,221.5C 187.844,219.547 187.511,217.547 187.5,215.5 Z"/></g>
<g><path style="opacity:1" fill="#144b83" d="M 186.5,255.5 C 184.895,252.88 183.562,250.047 182.5,247C 177.9,245.417 176.066,246.917 177,251.5C 182.457,264.107 190.624,274.441 201.5,282.5C 199.396,282.201 197.396,282.534 195.5,283.5C 196.167,284.5 196.833,285.5 197.5,286.5C 197.616,293.558 194.282,296.392 187.5,295C 184.46,294.404 181.794,293.237 179.5,291.5C 179.008,289.159 177.841,287.159 176,285.5C 174.933,287.283 173.433,287.783 171.5,287C 172.108,285.769 172.441,284.436 172.5,283C 171.639,279.449 170.639,275.949 169.5,272.5C 174.822,281.321 181.988,288.321 191,293.5C 192.833,293 194,291.833 194.5,290C 189.673,285.639 184.84,281.139 180,276.5C 175.002,269.503 171.335,261.836 169,253.5C 167.444,251.365 165.611,251.032 163.5,252.5C 163.5,251.5 163.5,250.5 163.5,249.5C 166.157,249.162 168.49,249.829 170.5,251.5C 171.962,250.529 173.295,250.862 174.5,252.5C 174.108,245.754 177.108,243.254 183.5,245C 186.1,247.984 187.1,251.484 186.5,255.5 Z"/></g>
<g><path style="opacity:1" fill="#eff8f8" d="M 186.5,255.5 C 191.457,266.457 199.457,274.457 210.5,279.5C 211.747,281.006 211.747,282.506 210.5,284C 207.319,284.597 204.319,284.097 201.5,282.5C 190.624,274.441 182.457,264.107 177,251.5C 176.066,246.917 177.9,245.417 182.5,247C 183.562,250.047 184.895,252.88 186.5,255.5 Z"/></g>
<g><path style="opacity:1" fill="#054a94" d="M 281.5,247.5 C 279.975,250.563 277.975,253.23 275.5,255.5C 273.907,254.652 272.74,253.319 272,251.5C 271.666,253.847 271.833,256.181 272.5,258.5C 268.932,258.241 267.599,256.241 268.5,252.5C 266.052,252.085 264.719,253.085 264.5,255.5C 266.091,258.675 267.091,262.009 267.5,265.5C 266.178,265.67 265.011,265.337 264,264.5C 262.71,262.208 261.043,260.208 259,258.5C 258.517,257.552 258.351,256.552 258.5,255.5C 261.851,251.855 264.851,247.855 267.5,243.5C 268.429,242.311 268.762,240.978 268.5,239.5C 269.5,239.5 270.5,239.5 271.5,239.5C 271.281,238.325 271.614,237.325 272.5,236.5C 273.695,238.297 275.362,239.297 277.5,239.5C 277.5,240.5 277.5,241.5 277.5,242.5C 278.5,242.5 279.5,242.5 280.5,242.5C 280.313,240.436 279.813,238.436 279,236.5C 277.243,235.881 276.076,234.714 275.5,233C 278.296,228.257 280.13,228.757 281,234.5C 283.547,235.473 285.047,237.307 285.5,240C 283.161,241.989 281.827,244.489 281.5,247.5 Z"/></g>
<g><path style="opacity:1" fill="#034c97" d="M 173.5,255.5 C 174.473,256.791 175.473,256.791 176.5,255.5C 177.589,258.679 179.423,261.345 182,263.5C 182.333,264.833 182.667,266.167 183,267.5C 185.415,270.221 187.915,272.887 190.5,275.5C 192.681,283.122 191.348,284.122 186.5,278.5C 185.614,277.675 185.281,276.675 185.5,275.5C 184.178,275.67 183.011,275.337 182,274.5C 180.85,270.184 179.016,266.184 176.5,262.5C 175.808,263.025 175.308,263.692 175,264.5C 173.608,261.722 173.108,258.722 173.5,255.5 Z"/></g>
<g><path style="opacity:1" fill="#164e7f" d="M 314.5,270.5 C 313.496,269.317 312.662,267.984 312,266.5C 310.883,266.665 309.716,266.998 308.5,267.5C 307.717,265.712 306.384,264.712 304.5,264.5C 307.038,260.095 310.705,257.595 315.5,257C 318.142,261.687 317.809,266.187 314.5,270.5 Z"/></g>
<g><path style="opacity:1" fill="#084c9b" d="M 311.5,258.5 C 312.833,258.5 314.167,258.5 315.5,258.5C 315.5,260.5 315.5,262.5 315.5,264.5C 309.541,265.222 308.207,263.222 311.5,258.5 Z"/></g>
<g><path style="opacity:1" fill="#265389" d="M 415.5,238.5 C 415.073,243.212 413.573,247.545 411,251.5C 409.863,258.12 409.363,264.786 409.5,271.5C 410.5,271.5 411.5,271.5 412.5,271.5C 412.5,276.833 412.5,282.167 412.5,287.5C 411.5,287.5 410.5,287.5 409.5,287.5C 410.143,298.552 409.476,309.219 407.5,319.5C 407.167,319.5 406.833,319.5 406.5,319.5C 406.333,300.83 406.5,282.164 407,263.5C 407.769,254.358 410.602,246.025 415.5,238.5 Z"/></g>
<g><path style="opacity:1" fill="#1d4979" d="M 386.5,303.5 C 385.235,302.486 384.569,300.986 384.5,299C 383.775,293.857 383.441,288.69 383.5,283.5C 382.5,283.5 381.5,283.5 380.5,283.5C 380.662,281.473 380.495,279.473 380,277.5C 378.612,276.446 377.112,276.28 375.5,277C 374.712,280.076 374.212,283.242 374,286.5C 372.989,287.337 371.822,287.67 370.5,287.5C 371.379,282.971 372.713,278.638 374.5,274.5C 379.864,273.317 383.031,275.651 384,281.5C 384.694,288.858 385.528,296.191 386.5,303.5 Z"/></g>
<g><path style="opacity:1" fill="#ecf8f9" d="M 169.5,272.5 C 166.088,266.264 164.088,259.598 163.5,252.5C 165.611,251.032 167.444,251.365 169,253.5C 171.335,261.836 175.002,269.503 180,276.5C 184.84,281.139 189.673,285.639 194.5,290C 194,291.833 192.833,293 191,293.5C 181.988,288.321 174.822,281.321 169.5,272.5 Z"/></g>
<g><path style="opacity:1" fill="#094c87" d="M 303.5,265.5 C 303.5,264.833 303.833,264.5 304.5,264.5C 306.384,264.712 307.717,265.712 308.5,267.5C 309.716,266.998 310.883,266.665 312,266.5C 312.662,267.984 313.496,269.317 314.5,270.5C 311.072,278.353 307.406,286.02 303.5,293.5C 303.439,290.512 304.105,287.679 305.5,285C 304.636,282.772 303.636,280.605 302.5,278.5C 300.383,281.662 297.716,284.329 294.5,286.5C 293.277,287.614 291.944,287.781 290.5,287C 293.669,281.879 297.669,277.379 302.5,273.5C 305.01,275.187 306.51,277.52 307,280.5C 309.27,278.685 309.936,276.352 309,273.5C 306.67,276.182 306.17,275.849 307.5,272.5C 306.167,271.833 304.833,271.167 303.5,270.5C 304.325,269.614 305.325,269.281 306.5,269.5C 306.912,267.027 305.912,265.694 303.5,265.5 Z"/></g>
<g><path style="opacity:1" fill="#144b81" d="M 345.5,303.5 C 345.831,295.14 345.498,286.807 344.5,278.5C 342.119,280.098 340.952,282.432 341,285.5C 339.915,286.293 338.748,286.96 337.5,287.5C 336.672,291.796 336.172,296.129 336,300.5C 335.667,298.833 335.333,297.167 335,295.5C 331.686,298.03 329.519,301.364 328.5,305.5C 330.105,307.136 331.439,308.969 332.5,311C 332.576,313.756 331.243,314.923 328.5,314.5C 328.5,312.5 328.5,310.5 328.5,308.5C 325.648,308.352 323.981,309.686 323.5,312.5C 324.833,314.5 326.167,316.5 327.5,318.5C 326.833,318.833 326.167,319.167 325.5,319.5C 323.489,318.481 321.489,317.481 319.5,316.5C 326.723,303.059 334.223,289.726 342,276.5C 344.112,274.078 346.112,274.078 348,276.5C 348.383,285.736 347.55,294.736 345.5,303.5 Z"/></g>
<g><path style="opacity:1" fill="#e0f4f9" d="M 393.5,344.5 C 392.21,343.942 391.377,342.942 391,341.5C 390.098,336.706 389.265,332.039 388.5,327.5C 387.701,319.512 387.035,311.512 386.5,303.5C 385.528,296.191 384.694,288.858 384,281.5C 383.031,275.651 379.864,273.317 374.5,274.5C 374.5,273.5 374.5,272.5 374.5,271.5C 376.199,271.34 377.866,271.506 379.5,272C 382.506,274.905 385.339,278.072 388,281.5C 388.339,284.978 387.839,288.312 386.5,291.5C 387.834,306.184 389.334,320.85 391,335.5C 391.849,338.521 392.683,341.521 393.5,344.5 Z"/></g>
<g><path style="opacity:1" fill="#194a7a" d="M 367.5,305.5 C 365.823,326.054 362.656,346.387 358,366.5C 357.086,365.346 356.253,365.513 355.5,367C 351.5,367.667 347.5,367.667 343.5,367C 341.331,364.797 338.665,363.964 335.5,364.5C 335.275,362.284 336.108,360.617 338,359.5C 339.7,347.901 340.7,336.235 341,324.5C 341.737,322.404 342.903,320.737 344.5,319.5C 342.078,333.391 340.911,347.391 341,361.5C 341.833,363.667 343.333,365.167 345.5,366C 351.109,367.778 354.943,365.945 357,360.5C 360.733,342.084 364.233,323.751 367.5,305.5 Z"/></g>
<g><path style="opacity:1" fill="#124a80" d="M 406.5,319.5 C 406.833,319.5 407.167,319.5 407.5,319.5C 407.522,327.203 407.688,334.87 408,342.5C 404.995,345.012 402.495,348.012 400.5,351.5C 399.833,350.5 399.167,349.5 398.5,348.5C 394.774,348.256 391.607,346.923 389,344.5C 388.501,338.843 388.334,333.176 388.5,327.5C 389.265,332.039 390.098,336.706 391,341.5C 391.377,342.942 392.21,343.942 393.5,344.5C 397.202,347.267 400.702,346.934 404,343.5C 406.157,335.675 406.991,327.675 406.5,319.5 Z"/></g>
<g><path style="opacity:1" fill="#114b85" d="M 284.5,335.5 C 283.969,338.237 283.136,340.904 282,343.5C 280.924,348.072 281.757,352.239 284.5,356C 289.966,358.548 294.8,357.714 299,353.5C 301.673,347.48 304.84,341.813 308.5,336.5C 309.121,340.968 309.954,344.968 311,348.5C 310.167,349.5 309.333,350.5 308.5,351.5C 307.494,351.062 307.494,350.396 308.5,349.5C 303.944,345.281 302.278,346.281 303.5,352.5C 300.898,353.435 298.898,355.102 297.5,357.5C 299.396,358.466 301.396,358.799 303.5,358.5C 303.5,359.5 303.5,360.5 303.5,361.5C 297.57,360.34 291.57,359.34 285.5,358.5C 282.478,360.005 279.478,361.339 276.5,362.5C 276.238,361.022 276.571,359.689 277.5,358.5C 279.002,357.917 280.335,357.084 281.5,356C 278.109,348.288 279.109,341.454 284.5,335.5 Z"/></g>
</svg>