<?xml version="1.0" standalone="no"?>
<!DOCTYPE svg PUBLIC "-//W3C//DTD SVG 20010904//EN"
 "http://www.w3.org/TR/2001/REC-SVG-20010904/DTD/svg10.dtd">
<svg version="1.0" xmlns="http://www.w3.org/2000/svg"
 width="1254.000000pt" height="1254.000000pt" viewBox="0 0 1254.000000 1254.000000"
 preserveAspectRatio="xMidYMid meet">

<g transform="translate(0.000000,1254.000000) scale(0.100000,-0.100000)"
fill="#000000" stroke="none">
<path d="M5794 10950 c-155 -32 -261 -150 -283 -315 -6 -44 -7 -493 -3 -1210
5 -627 5 -1173 2 -1212 -4 -62 -9 -77 -33 -100 -21 -22 -36 -27 -68 -27 -41 1
-83 30 -94 63 -4 14 -125 1094 -190 1693 -14 131 -32 257 -41 280 -38 109
-116 192 -213 229 -74 28 -212 24 -283 -8 -66 -30 -133 -96 -165 -162 -41 -85
-40 -171 1 -651 20 -228 57 -647 81 -930 25 -283 52 -591 60 -685 8 -93 24
-278 36 -409 11 -132 25 -248 30 -258 12 -23 45 -39 149 -73 313 -103 570
-279 742 -509 71 -96 92 -140 78 -167 -19 -34 -50 -21 -129 54 -177 168 -297
252 -496 348 -77 37 -200 87 -274 110 -178 58 -193 72 -347 329 -263 438 -402
609 -588 724 -109 68 -182 90 -301 90 -89 1 -107 -2 -162 -28 -64 -29 -137
-96 -166 -152 -23 -45 -35 -127 -26 -182 10 -66 36 -114 110 -208 225 -283
411 -620 618 -1119 180 -434 278 -632 412 -832 138 -206 331 -414 527 -568
l102 -80 41 -104 c109 -276 130 -572 85 -1156 -9 -106 -11 -186 -6 -196 6 -9
62 -33 137 -58 189 -62 374 -156 488 -248 72 -58 200 -194 245 -259 63 -91
138 -239 166 -329 12 -39 24 -63 27 -55 3 8 15 47 28 85 66 210 223 424 418
570 114 86 306 183 466 235 72 23 134 45 138 50 5 4 10 160 12 346 2 187 8
360 13 387 l9 47 -84 40 c-183 86 -388 240 -525 395 -474 538 -569 1284 -243
1925 83 163 265 389 416 516 310 261 660 394 1080 411 l157 6 6 41 c3 23 40
313 81 645 132 1056 133 1071 84 1169 -35 70 -71 105 -149 141 -68 31 -159 33
-240 6 -72 -24 -150 -100 -174 -170 -15 -46 -119 -643 -180 -1035 -48 -309
-55 -337 -88 -365 -34 -29 -57 -31 -98 -10 -47 24 -50 56 -29 296 10 118 32
394 49 614 17 220 44 571 60 779 17 209 30 407 30 441 0 168 -95 295 -254 341
-154 43 -324 -33 -396 -180 -37 -76 -31 -4 -130 -1361 -42 -574 -61 -779 -77
-808 -8 -16 -30 -35 -49 -43 -29 -12 -39 -12 -68 0 -71 30 -68 6 -78 619 -4
304 -12 867 -17 1252 -8 685 -9 701 -30 756 -40 105 -106 172 -206 211 -52 20
-149 29 -201 18z"/>
<path d="M10060 7913 c-335 -21 -710 -89 -991 -179 -200 -64 -501 -194 -587
-252 -10 -7 20 -26 107 -70 l121 -60 122 55 c310 140 717 238 1141 272 70 6
236 11 367 11 l239 0 20 -26 c15 -19 21 -41 21 -79 0 -29 16 -304 35 -611 58
-927 98 -1634 150 -2644 9 -162 22 -398 30 -525 25 -400 39 -730 32 -757 -4
-14 -15 -29 -24 -32 -10 -4 -88 1 -174 10 l-156 18 -50 -22 c-124 -53 -300
-49 -423 9 -58 27 -69 29 -188 29 -1230 0 -2618 -405 -3235 -944 l-84 -74 -54
54 c-104 106 -220 157 -358 156 -137 -1 -274 -62 -368 -164 l-41 -45 -62 54
c-439 382 -1143 695 -1911 847 -438 86 -704 111 -1204 110 -392 0 -423 -2
-776 -40 -45 -5 -58 -3 -74 12 -20 21 -21 8 15 624 10 190 31 552 45 805 60
1099 77 1402 155 2694 26 443 30 486 48 504 18 17 35 19 238 19 253 0 445 -14
649 -46 127 -19 145 -20 139 -7 -17 41 -43 131 -49 173 l-7 46 -106 16 c-230
35 -315 40 -657 40 -335 1 -352 0 -385 -19 -62 -37 -70 -63 -80 -262 -6 -98
-13 -197 -16 -220 l-5 -43 -187 0 c-283 0 -285 -2 -302 -270 -5 -96 -19 -319
-30 -495 -28 -448 -66 -1078 -90 -1485 -11 -190 -36 -592 -55 -895 -19 -302
-48 -779 -65 -1060 -17 -280 -34 -557 -39 -614 -12 -152 4 -201 76 -237 36
-18 61 -19 438 -16 1441 12 2552 -106 3653 -388 128 -33 258 -70 289 -83 51
-20 59 -28 97 -95 47 -83 102 -127 169 -137 23 -3 263 -5 533 -3 l491 3 48 30
c37 23 57 45 84 96 20 36 42 73 50 82 16 20 88 42 346 107 1043 264 2409 399
3920 388 425 -3 441 -2 474 17 19 11 43 33 55 48 27 37 27 78 -7 622 -15 231
-34 542 -42 690 -9 149 -29 479 -45 735 -17 256 -41 647 -55 870 -13 223 -38
623 -54 890 -17 267 -37 604 -45 750 -23 402 -21 388 -66 432 l-38 38 -200 0
-200 0 -7 108 c-20 333 -21 342 -41 369 -11 15 -33 36 -48 47 -26 20 -41 21
-344 22 -174 0 -342 -1 -372 -3z m-7000 -5108 c661 -63 1247 -215 1755 -454
166 -78 288 -142 282 -148 -3 -2 -18 2 -34 10 -47 24 -188 73 -363 127 -896
275 -1989 364 -2909 235 -67 -10 -108 -12 -115 -5 -6 6 -6 38 0 87 l9 78 110
22 c130 25 334 52 489 63 157 12 581 4 776 -15z m7341 1 c115 -12 448 -62 455
-70 1 0 5 -36 9 -78 7 -70 5 -78 -11 -85 -10 -4 -70 -1 -133 5 -64 7 -190 20
-281 29 -211 22 -1044 25 -1270 5 -508 -45 -884 -102 -1275 -193 -235 -55
-554 -146 -680 -194 -14 -6 -17 -5 -10 2 6 6 65 36 132 67 645 297 1425 479
2243 526 203 11 637 4 821 -14z"/>
<path d="M7670 7400 c-369 -46 -676 -194 -930 -450 -500 -500 -593 -1257 -230
-1867 366 -614 1129 -889 1820 -657 112 38 263 114 370 186 l96 65 66 -61 66
-61 4 -86 c7 -148 -10 -127 585 -720 606 -604 580 -583 738 -584 80 0 97 3
149 29 79 39 140 102 179 183 26 56 31 79 31 143 0 64 -5 86 -32 143 -29 63
-69 105 -557 590 -388 385 -539 529 -578 550 -37 20 -79 31 -144 39 l-93 12
-61 62 -62 62 52 86 c98 161 155 304 191 477 88 425 8 839 -232 1199 -76 115
-258 300 -375 383 -176 125 -418 227 -623 262 -118 20 -330 27 -430 15z m391
-350 c254 -52 455 -164 637 -353 457 -479 437 -1230 -47 -1690 -223 -213 -511
-327 -821 -327 -330 0 -629 127 -862 368 -151 156 -254 334 -304 529 -35 134
-44 367 -20 498 95 506 477 888 980 980 114 21 321 18 437 -5z"/>
<path d="M7551 6740 c-222 -60 -408 -204 -514 -401 -92 -168 -124 -433 -58
-468 30 -16 49 8 72 89 47 166 134 314 256 431 148 142 318 223 547 260 81 13
121 35 110 62 -11 30 -59 40 -199 44 -116 2 -153 0 -214 -17z"/>
<path d="M1980 3698 c-14 -15 -20 -35 -20 -67 0 -25 -3 -76 -6 -112 -11 -112
-33 -105 397 -112 567 -9 964 -59 1444 -182 586 -151 1193 -426 1733 -786 89
-60 168 -109 176 -109 23 0 39 26 28 47 -15 27 -224 228 -322 309 -278 231
-662 460 -1035 617 -619 260 -1424 416 -2152 417 -216 0 -223 -1 -243 -22z"/>
<path d="M9330 3643 c-463 -66 -876 -169 -1315 -328 -584 -212 -1099 -517
-1418 -839 -72 -72 -97 -104 -95 -120 5 -38 42 -30 125 27 201 140 578 345
865 470 602 263 1319 451 1954 512 87 9 162 17 167 18 4 1 -52 61 -125 133
-110 107 -137 130 -158 127z"/>
</g>
</svg>
