<?xml version="1.0" encoding="UTF-8"?>
<svg xmlns="http://www.w3.org/2000/svg" version="1.1" width="590" height="389" viewBox="0 0 590 389">
  <g>
    <path fill="#fafdfc" d="M 239.5,47.5 C 241.716,63.702 244.383,79.702 247.5,95.5C 248.211,103.89 249.377,112.223 251,120.5C 251.874,122.776 253.541,124.11 256,124.5C 258.074,123.928 259.24,122.595 259.5,120.5C 265.166,93.6713 270.666,66.6713 276,39.5C 276.996,37.3395 278.496,35.6728 280.5,34.5C 285.447,33.6276 289.613,34.9609 293,38.5C 292.167,63.8365 291,89.1699 289.5,114.5C 288.808,123.401 288.141,132.401 287.5,141.5C 285.847,141.66 284.514,142.326 283.5,143.5C 283.167,143.5 282.833,143.5 282.5,143.5C 268.599,148.785 254.266,152.285 239.5,154C 236.734,155.371 234.401,157.204 232.5,159.5C 226.111,166.586 224.945,174.586 229,183.5C 233.236,190.244 239.07,194.91 246.5,197.5C 249.906,199.109 253.573,200.276 257.5,201C 268.86,201.743 280.193,201.577 291.5,200.5C 288.923,205.697 286.423,211.03 284,216.5C 272.867,232.599 261.367,248.432 249.5,264C 239.146,264.296 228.813,264.796 218.5,265.5C 215.807,264.153 213.14,262.82 210.5,261.5C 206.123,257.289 202.29,252.622 199,247.5C 194.439,236.975 190.605,226.308 187.5,215.5C 187.5,215.167 187.5,214.833 187.5,214.5C 185.652,201.721 183.152,189.054 180,176.5C 178.951,173.813 177.451,171.48 175.5,169.5C 174.955,167.407 174.122,165.407 173,163.5C 158.652,144.141 145.819,123.807 134.5,102.5C 136.169,95.8342 140.169,93.6675 146.5,96C 159.709,110.873 172.542,126.04 185,141.5C 187.912,144.544 191.412,145.711 195.5,145C 197.444,142.847 197.944,140.347 197,137.5C 189.999,120.175 182.499,103.175 174.5,86.5C 171.77,79.8166 168.937,73.1499 166,66.5C 161.404,56.3036 164.57,50.9703 175.5,50.5C 178.889,52.7252 181.389,55.7252 183,59.5C 187.941,69.7181 193.108,79.7181 198.5,89.5C 201.913,96.6608 205.58,103.661 209.5,110.5C 209.893,112.284 210.559,113.95 211.5,115.5C 213.451,119.229 215.784,122.729 218.5,126C 220.433,126.783 221.933,126.283 223,124.5C 223.362,114.649 222.862,104.982 221.5,95.5C 221.248,82.6266 220.248,69.9599 218.5,57.5C 218.813,53.9581 218.479,50.6248 217.5,47.5C 217.359,42.1327 217.192,36.7994 217,31.5C 223.236,23.525 229.57,23.525 236,31.5C 237.204,36.9652 238.37,42.2985 239.5,47.5 Z"/>
    <path fill="#fbfdfd" d="M 361.5,127.5 C 369.813,126.752 377.813,127.918 385.5,131C 396.538,143.347 409.538,153.014 424.5,160C 426.314,162.479 427.981,164.979 429.5,167.5C 431.438,175.377 431.938,183.377 431,191.5C 427.122,207.301 421.955,222.634 415.5,237.5C 415.5,237.833 415.5,238.167 415.5,238.5C 410.602,246.025 407.769,254.358 407,263.5C 406.5,282.164 406.333,300.83 406.5,319.5C 406.991,327.675 406.157,335.675 404,343.5C 400.702,346.934 397.202,347.267 393.5,344.5C 392.683,341.521 391.849,338.521 391,335.5C 389.334,320.85 387.834,306.184 386.5,291.5C 387.839,288.312 388.339,284.978 388,281.5C 385.339,278.072 382.506,274.905 379.5,272C 377.866,271.506 376.199,271.34 374.5,271.5C 374.5,272.5 374.5,273.5 374.5,274.5C 372.713,278.638 371.379,282.971 370.5,287.5C 368.943,293.394 367.943,299.394 367.5,305.5C 364.233,323.751 360.733,342.084 357,360.5C 354.943,365.945 351.109,367.778 345.5,366C 343.333,365.167 341.833,363.667 341,361.5C 340.911,347.391 342.078,333.391 344.5,319.5C 344.833,314.167 345.167,308.833 345.5,303.5C 347.55,294.736 348.383,285.736 348,276.5C 346.112,274.078 344.112,274.078 342,276.5C 334.223,289.726 326.723,303.059 319.5,316.5C 315.329,322.838 311.663,329.504 308.5,336.5C 304.84,341.813 301.673,347.48 299,353.5C 294.8,357.714 289.966,358.548 284.5,356C 281.757,352.239 280.924,348.072 282,343.5C 283.136,340.904 283.969,338.237 284.5,335.5C 291.35,321.795 297.683,307.795 303.5,293.5C 307.406,286.02 311.072,278.353 314.5,270.5C 317.809,266.187 318.142,261.687 315.5,257C 310.705,257.595 307.038,260.095 304.5,264.5C 303.833,264.5 303.5,264.833 303.5,265.5C 286.612,282.773 269.612,299.94 252.5,317C 240.722,319.888 236.222,315.388 239,303.5C 251.791,287.889 263.957,271.889 275.5,255.5C 277.975,253.23 279.975,250.563 281.5,247.5C 285.321,243.194 288.655,238.527 291.5,233.5C 296.761,227.323 300.761,220.323 303.5,212.5C 306.067,208.151 308.067,203.485 309.5,198.5C 312.77,186.412 308.104,181.079 295.5,182.5C 283.551,184.021 271.551,184.688 259.5,184.5C 253.441,183.554 248.274,180.887 244,176.5C 242.555,170.431 245.055,167.598 251.5,168C 258.737,168.361 265.404,166.861 271.5,163.5C 282.161,161.394 292.161,157.727 301.5,152.5C 302.492,152.672 303.158,152.338 303.5,151.5C 310.899,147.801 318.232,144.134 325.5,140.5C 328.918,139.361 332.251,138.028 335.5,136.5C 344.056,132.87 352.723,129.87 361.5,127.5 Z"/>
    <path fill="#f0fafa" d="M 440.5,191.5 C 442.482,182.177 441.482,173.177 437.5,164.5C 436.365,162.255 435.865,159.922 436,157.5C 437.133,155.789 438.633,155.289 440.5,156C 443.827,160.639 445.994,165.805 447,171.5C 447.853,180.886 447.519,190.219 446,199.5C 445.703,202.438 444.203,204.438 441.5,205.5C 440.522,205.023 439.689,204.357 439,203.5C 439.479,199.556 439.979,195.556 440.5,191.5 Z"/>
    <path fill="#ecf6f7" d="M 455.5,159.5 C 457.144,159.286 458.644,159.62 460,160.5C 465.829,175.449 465.829,190.449 460,205.5C 457.235,209.587 455.069,209.42 453.5,205C 458.355,191.093 458.689,177.093 454.5,163C 454.648,161.744 454.982,160.577 455.5,159.5 Z"/>
    <path fill="#d9eff7" d="M 309.5,198.5 C 311.028,191.376 308.361,186.876 301.5,185C 287.332,185.244 273.332,185.078 259.5,184.5C 271.551,184.688 283.551,184.021 295.5,182.5C 308.104,181.079 312.77,186.412 309.5,198.5 Z"/>
    <path fill="#eff8f8" d="M 186.5,255.5 C 191.457,266.457 199.457,274.457 210.5,279.5C 211.747,281.006 211.747,282.506 210.5,284C 207.319,284.597 204.319,284.097 201.5,282.5C 190.624,274.441 182.457,264.107 177,251.5C 176.066,246.917 177.9,245.417 182.5,247C 183.562,250.047 184.895,252.88 186.5,255.5 Z"/>
    <path fill="#ecf8f9" d="M 169.5,272.5 C 166.088,266.264 164.088,259.598 163.5,252.5C 165.611,251.032 167.444,251.365 169,253.5C 171.335,261.836 175.002,269.503 180,276.5C 184.84,281.139 189.673,285.639 194.5,290C 194,291.833 192.833,293 191,293.5C 181.988,288.321 174.822,281.321 169.5,272.5 Z"/>
    <path fill="#e0f4f9" d="M 393.5,344.5 C 392.21,343.942 391.377,342.942 391,341.5C 390.098,336.706 389.265,332.039 388.5,327.5C 387.701,319.512 387.035,311.512 386.5,303.5C 385.528,296.191 384.694,288.858 384,281.5C 383.031,275.651 379.864,273.317 374.5,274.5C 374.5,273.5 374.5,272.5 374.5,271.5C 376.199,271.34 377.866,271.506 379.5,272C 382.506,274.905 385.339,278.072 388,281.5C 388.339,284.978 387.839,288.312 386.5,291.5C 387.834,306.184 389.334,320.85 391,335.5C 391.849,338.521 392.683,341.521 393.5,344.5 Z"/>
  </g>
</svg>
